<svg xmlns="http://www.w3.org/2000/svg" xmlns:xlink="http://www.w3.org/1999/xlink" width="480" zoomAndPan="magnify" viewBox="0 0 360 367.91998" height="480" preserveAspectRatio="xMidYMid meet" version="1.0"><defs><clipPath id="6ab3c45482"><path d="M 18.035156 45 L 315 45 L 315 341.925781 L 18.035156 341.925781 Z M 18.035156 45 " clip-rule="nonzero"/></clipPath></defs><g clip-path="url(#6ab3c45482)"><path fill="#000000" d="M 290.035156 317.199219 L 42.761719 317.199219 L 42.761719 69.921875 L 191.128906 69.921875 L 191.128906 45.195312 L 42.761719 45.195312 C 29.113281 45.195312 18.035156 56.273438 18.035156 69.921875 L 18.035156 317.199219 C 18.035156 330.847656 29.113281 341.925781 42.761719 341.925781 L 290.035156 341.925781 C 303.6875 341.925781 314.765625 330.847656 314.765625 317.199219 L 314.765625 168.832031 L 290.035156 168.832031 Z M 290.035156 317.199219 " fill-opacity="1" fill-rule="nonzero"/></g><path fill="#000000" d="M 116.945312 243.410156 L 168.996094 243.410156 L 295.15625 117.253906 L 242.707031 64.804688 L 116.945312 190.570312 Z M 116.945312 243.410156 " fill-opacity="1" fill-rule="nonzero"/><path fill="#000000" d="M 332.246094 45.195312 L 314.765625 27.714844 C 305.097656 18.046875 289.445312 18.046875 279.800781 27.714844 L 260.191406 47.324219 L 312.636719 99.769531 L 332.246094 80.160156 C 341.914062 70.492188 341.914062 54.839844 332.246094 45.195312 Z M 332.246094 45.195312 " fill-opacity="1" fill-rule="nonzero"/></svg>